<?xml version="1.0" encoding="UTF-8"?>
<svg xmlns="http://www.w3.org/2000/svg" viewBox="0 0 512 512" fill="#EA580C">
  <path d="M424 288h-16v-37.28c0-38.34-31.38-69.72-69.72-69.72H327l-29.4-44.09A32.06 32.06 0 0 0 270.73 128H241.27a32.06 32.06 0 0 0-26.87 14.91L185 187h-11.28C135.38 187 104 218.38 104 256.72V288H88a8 8 0 0 0-8 8v16a8 8 0 0 0 8 8h336a8 8 0 0 0 8-8v-16a8 8 0 0 0-8-8zm-40 0H128v-31.28c0-25.12 20.6-45.72 45.72-45.72h18.58a8 8 0 0 0 6.7-3.63L230.8 152h50.4l31.8 47.63a8 8 0 0 0 6.7 3.63h18.58c25.12 0 45.72 20.6 45.72 45.72z"/>
</svg>
